# xmcd
#
# Track frame offsets:
#	150
#	43397
#	63550
#	86745
#	121100
#	149602
#	172457
#	205787
#	232637
#	257272
#
# Disc length: 3904 seconds
#
# Revision: 1
# Processed by: cddbd v1.5.2PL0 Copyright (c) Steve Scherf et al.
# Submitted via: audiograbber 1.83.01
#
DISCID=8e0f3e0a
DTITLE=Sobe Blue - So Live, It Hurts
DYEAR=1900
DGENRE=
TTITLE0=Cissy Struts ( The Meters )
TTITLE1=Candy Man
TTITLE2=Alone Again
TTITLE3=Won't Have This Pool
TTITLE4=Why Are You Leaving Me
TTITLE5=Second Time Around
TTITLE6=Ain't Got You
TTITLE7=Sweet Love Tonight
TTITLE8=Cold Blooded
TTITLE9=Party
EXTD=
EXTT0=
EXTT1=
EXTT2=
EXTT3=
EXTT4=
EXTT5=
EXTT6=
EXTT7=
EXTT8=
EXTT9=
PLAYORDER=
